<?xml version="1.0" encoding="utf-8"?>
<!-- Generator: Adobe Illustrator 19.1.0, SVG Export Plug-In . SVG Version: 6.00 Build 0)  -->
<svg version="1.1" id="Calque_1" xmlns="http://www.w3.org/2000/svg" xmlns:xlink="http://www.w3.org/1999/xlink" x="0px" y="0px"
	 viewBox="435.2 37 105.5 105.1" style="enable-background:new 435.2 37 105.5 105.1;" xml:space="preserve">
<style type="text/css">
	.st0{fill:#FFFFFF;}
	.st1{clip-path:url(#SVGID_1_);fill:#E5007D;}
	.st2{fill:#E5007D;}
	.st3{clip-path:url(#SVGID_2_);fill:#E5007D;}
	.st4{clip-path:url(#SVGID_3_);fill:#E5007D;}
	.st5{clip-path:url(#SVGID_3_);}
	.st6{clip-path:url(#SVGID_4_);fill:none;stroke:#E5007D;stroke-width:1.534;}
</style>
<title>logo</title>
<g>
	<path class="st0" d="M510.9,70.3c0.7-0.9,1.6-1.5,2.6-1.9c0-0.1-0.1-0.2-0.1-0.3c-0.3,0.1-0.5,0.1-0.7-0.1
		c-0.5-0.3-0.7-0.8-0.7-1.4c-0.1-0.6-0.1-1.2-0.1-1.8l-1.3-1.5c-0.1,1.6-0.1,3.2-0.1,4.8c-0.1,0.5-0.3,1-0.8,1.3
		c-0.4,0.1-0.7-0.1-0.9-0.3c-0.6-0.7-0.8-1.6-1.2-2.4l-0.2,0.2c-0.3,1.3,0,2.9-1.3,3.7c-0.7,0-1.1,1-1.9,0.7
		c-0.9-0.5-1.1-1.6-1.8-2.3c-1.8-0.1-1.2,1.9-1.7,2.9c-0.3,0.7-0.6,1.4-1.3,1.7c-1.5,0.2-2.5-1.3-3.6-2.2c-0.2,0-0.4,0.2-0.4,0.4
		c-0.2,1.4-0.2,3.1-1.6,3.8c-0.3,0-0.7,0-1-0.2c-0.5-0.5-0.5-1.2-0.7-1.8l-0.1,0c-0.4,1.1-0.8,2.6-2.1,3.1c-0.7,0.3-1.8,0.3-2.5,0.2
		c-0.4,0.5-0.6,1.3-1.4,1.3c-0.6,0.1-1.1-0.5-1.4-1c-0.4-0.6-0.5-1.2-1-1.8c-0.3,0-0.5,0.1-0.7,0.2c-0.4,0.5-0.1,1.1-0.3,1.7
		c-0.2,1-0.2,2.2-1.3,2.6c-0.5,0.1-0.9-0.1-1.3-0.3c-0.5-0.4-0.4-1.1-0.4-1.8c0.2-2.9,0.8-5.6,1.1-8.5c0-0.1-0.2-0.2-0.3-0.1
		c-0.5,0.5-1.1,1-1.8,1.3l-0.2,0.3c-0.2,3.3,0,6.5-0.6,9.6c-0.3,0.6-0.7,1.4-1.5,1.3c-0.5,0-0.9-0.4-1.1-0.9
		c-0.5-1.1-0.1-2.4-0.1-3.7c0.1-1.7,0.3-3.3,0.2-5l-0.2-0.1l-1.4,0.1c-0.9,0.8-1.5,1.9-1.5,3.1c0.3,0.7,1.3,0.5,1.5,1.3
		c0.3,2.4-0.5,4.5-1.8,6.4c-0.3,0.4-0.7,1-1.2,0.9c-0.5,0-0.9-0.5-1.3-0.8c-0.6,0.1-0.9,0.9-1.5,1.2c0,0.6-0.7,0.4-1,0.8
		c-0.6,0.5-1.6,0.9-2.4,0.6c-1,0.2-1.6-0.8-2.3-1.3l-2.5-2.3c-0.2,0-0.1,0.3-0.2,0.4l-0.1,4.6c-0.1,0.5-0.4,1-0.8,1.3
		c-0.4,0.2-0.9,0.1-1.2-0.1c0,0.1,0.1,0.1,0.1,0.2c0.4,0.9,1.1,1.7,1.6,2.6l0,0c0.1,0,0.2-0.1,0.4-0.1c1,0.1,1.6,1.3,1.9,2.1
		c0.1,0.2,0.1,0.4,0.2,0.6c0.9,0.7,2.1,1.8,3,2.4l0.5,0.4c0.3-2.1,0.9-4,1.7-5.7c0.9-1.9,2.8-3.9,5-3.9c1.9-0.1,3.6,0.6,4.9,2
		c0.4-0.1,0.3-0.6,0.5-0.9c0.6-2.2,1.7-4.7,4-5.7c2-0.9,4.5-0.3,6.1,1.2c0.5,0,0.1-0.7,0.3-0.9c0.4-1.3,1.6-2.2,2.5-3.2
		c1.5-1.5,3-3,4.7-4.1c0.7-0.3,1.7-0.5,2.4,0l0.7,0.9c-1.1,2.2-3.4,3.7-5.2,5.3c-0.2,0.9,0.2,1.6,0.3,2.5c0.1,0.1,0.2,0.2,0.4,0.1
		c1.1-0.8,2.1-1.8,3.3-2.1c0.6-0.1,1,0.4,1.3,0.8c0.2,0.7,0.5,1.5,0.1,2.2c-0.9,1.5-2.6,2.8-3.8,4.2c0.1,1.4,0.3,2.7,0.6,4.1
		c0,0.1,0.2,0.1,0.2,0.1c1.3-1.6,2.6-4.4,5.1-3.8c0.3,0,0.1-0.4,0.1-0.5c-1.3-4.1-1.5-8.7-2-13.1l-0.2,0.1c0.4-0.6,1.1-1.3,1.9-1.4
		c0.7-0.1,1.2,0.3,1.8,0.7c1.7,1.8,0.5,4.4,0.7,6.6c0.2,2.7,0.6,5.2,1.2,7.7c0.4,1.1,0.6,2.7,2,2.9c0.5,0,0.8-0.4,1-0.8
		c0.5-2.6,0.2-5.7-0.1-8.4c-0.4-3-1.6-5.7-1.9-8.8c0-0.8,0.3-1.7,1.1-2.1c0.7-0.2,1.6-0.4,2.2,0.2c1.1,1,1.4,2.3,1.7,3.6
		c0.6,2.7,1,5.4,1.1,8.2c0.2-0.3,0.4-0.8,0.6-1c-0.1-3.3-0.4-6.6-1.4-9.6C509.8,72.3,510.3,71.1,510.9,70.3z"/>
	<path class="st0" d="M482.8,70.2c-0.2,0.6-0.1,1.2-0.1,1.9c0.1,0.3,0.3,0.3,0.5,0.2c0.4-0.2,0.5-0.5,0.4-0.9
		C483.5,70.9,483.5,70.2,482.8,70.2z"/>
	<path class="st0" d="M468.6,77.3l-1.4,1.7c-0.5,0.3-0.3,0.8-0.2,1.3c0.2,0.2,0,0.6,0.3,0.5c0.5-0.5,0.9-1.1,1.5-1.4
		c0.4-0.2,0.8,0.1,1.1,0.2l0.2-0.1c0.3-0.5,0.3-1.2,0.2-1.7C469.7,77.9,469.1,77.7,468.6,77.3z"/>
	<path class="st0" d="M460,73.8c1-0.2,1.9,0,2.5,0.8c0,0.3,0.4,0.5,0.4,0.8c0.7,1.7-0.2,3.3-0.7,4.9c0.4,0.7,1.2,1.2,1.8,1.8
		l0.2-0.2c0-2.4-0.3-4.6-0.5-6.9c0.7-1.5,2.3-2.8,3.5-4c0.3-0.3,0.8-0.4,1.2-0.3c0.3,0.2,0.6,0.4,0.7,0.7c0.7,2-1.9,2.6-2.7,4.1
		c-0.1,0.4-0.1,0.8,0.2,1.1c0.6-0.4,1.3-0.9,2-0.5c0.2-0.5,0.3-1.1,0.4-1.5c0.5-1.6,1.2-3.5,2.9-4.4c0.3-0.1,0.8-0.1,1.1,0
		c0.8-1.6,2.6-1.9,4-2.6c1.2-0.3,2.7-1.4,3.9-0.3c0.3-0.4,0.6-1.2,1.4-1.2l0.4,0.1c1.2,1.1,1.4,2.7,2.3,4c0.1,0,0.2-0.1,0.2-0.2
		c0-1.5,0-3,0.2-4.4c0.1-0.3,0.3-0.7,0.7-0.9c0.4-0.2,0.8-0.2,1.2,0c1.7,1.5,0.4,3.9,0.4,5.8c-0.1,1.1,0,2.2,0.3,3.1
		c0.2,0.3,0.4,0.3,0.7,0.1c0.7-1.3,0.6-3,0.5-4.6c-0.2-1.5-0.5-3.1-0.3-4.6c0.1-0.4,0.4-0.8,0.8-0.9c0.3-0.1,0.7-0.1,1.1,0
		c0.9,1,0.8,2.6,1.1,3.9c0,0.9,0.1,1.9,0.2,2.8l0.1-0.2c0.3-2.3,0.1-4.7,0.1-7.1c0-1.1,1.3-1,2-1.4c0.9-0.2,2.1-0.3,2.9,0.5
		c0.9,0.8,1.2,1.9,1.1,3c-0.2,1.2-1.1,2.1-1.7,3.1c0.2,0.7,0.7,1.2,1.3,1.7c0.1,0.1,0.2,0.3,0.4,0.2l0.1-0.5l1.3-9.2
		c0.2-0.4,0.1-0.8,0.6-1.1c0.4,0,0.8,0.2,1,0.6c1.2,1.8,1.9,3.9,3,5.8c0,0.1,0.1,0,0.1,0l0.2-0.3l0.4-6.8c0,0.3,0,0.6-0.1,0.9
		c-1.9-0.4-4.2-0.9-6.3-0.4c-4.3,1-8.1,3.1-12.1,4.8c-1.4,0.5-2.5-0.6-3.6-1.1c-4.2-2.4-8.4-5.5-13.7-4.3c-4.8,0.9-9,4.5-11.9,8.7
		c-1.7,2.9-2.7,6.2-2.7,9.8c0.5,0.2,0.8,0.9,1.1,1.4c0,0.2,0.1,0.4,0,0.6c-0.4,0-0.7,0.2-1,0.5c0.2,0.9,0.4,2.1,0.6,2.9
		c0,0,0,0,0.1,0.1c0.6,0.5,0.6,1.3,0.5,2.1c0.2,0.6,0.6,1.3,0.8,2c0-0.2,0-0.5,0-0.7c0.3-3.2,0.4-6.7,0.1-10
		C457.3,74.5,458.9,74.3,460,73.8z"/>
	<path class="st0" d="M501,63.9c-0.2,0.4-0.1,0.9-0.1,1.3c0.1,0.3,0.1,0.8,0.6,0.7c0.4,0,0.6-0.5,0.6-0.9
		C501.9,64.7,501.5,64,501,63.9z"/>
	<path class="st0" d="M494.8,64.3c-0.2,0.9,0.3,1.5,0.4,2.3c0.3,0.2,0.3-0.2,0.5-0.3c0.2-0.7,0.3-1.5-0.3-2.1
		C495.2,64.1,495,64.1,494.8,64.3z"/>
	<path class="st0" d="M484.5,100.8c0.4,0.2,1,0.2,1.4-0.1l0.7-0.8c1.5-2.9,1.3-6.7,0.3-9.8c-0.6-1.4-1.3-3.5-3.1-3.7
		c-0.4,0.1-0.8,0.2-1,0.6c-1.3,2.2-1.3,5.2-1.1,7.9C482.1,97,482.5,99.5,484.5,100.8z"/>
	<path class="st0" d="M459.6,77.5l0.2,2c0.1,0.2,0,0.5,0.3,0.5c0.6-0.8,0.7-2.2,0.1-3C459.9,76.9,459.8,77.3,459.6,77.5z"/>
	<path class="st0" d="M501.4,94.6c-0.3,0.2-0.3,0.5-0.4,0.8c-1.8,2.7-4.1,5.1-6.6,7.2c0,0,0.1,0,0.1-0.1c2.9-1.7,5.9-4.1,8.6-6.3
		C502.4,95.8,501.9,95.2,501.4,94.6z"/>
	<path class="st0" d="M492.5,103.1c-0.9-0.4-1-1.4-1.5-2.1c-0.6,0.6-0.6,1.6-1.2,2.3c-1.2,1.9-3.2,3-5.3,2.6
		c-5.5-1.6-6.7-7.6-7.4-12.5c-0.4-0.2-0.7,0.3-1.1,0.4c-1.5,0.5-2.5-0.8-3.6-1.4c-0.7-0.2-1.2,0.5-1.5,1c-0.9,1.9-0.9,4.3-0.8,6.5
		c0.2,2,0.7,3.9,1.8,5.5c0.4,0.5,1.1,0.6,1.7,0.5c1.3-1.1,1.1-3.2,2.9-3.7c0.7-0.1,1.3,0,1.8,0.5c1,0.9,0.9,2.4,0.5,3.6l3.8,2.6
		l0.7,0c3.6-1.6,6.8-3.8,10.3-5.7C493.3,103.1,492.9,103.2,492.5,103.1z"/>
</g>
<g>
	<defs>
		<rect id="SVGID_9_" x="437" y="38.5" width="102" height="102"/>
	</defs>
	<clipPath id="SVGID_1_">
		<use xlink:href="#SVGID_9_"  style="overflow:visible;"/>
	</clipPath>
	<path class="st1" d="M527.6,39.1c-1.8-1.4-4.1-0.2-5.8,0.7c-4.9,3.5-6.8,9.4-8.2,14.6c0.5-0.3,1-0.5,1.6-0.6
		c0.4,0.1,0.9,0.2,1.2,0.5c0.8-0.8,1.6-1.6,2.7-1.8c0.7,0,1.2,0.2,1.4,0.8c0.1,0.4,0.2,0.7-0.2,1c-0.7,0-1.2,0.5-1.7,0.9l-0.2,2.1
		c0.2,0.4,0.8,0,1.1,0.2c0.4,0.2,0.7,0.3,0.9,0.7c0.2,1.4-0.3,2.2-0.7,3.5c-0.9,1.8-1.8,4.1-3.9,4.7c-0.4,0.1-0.7-0.3-0.9-0.5
		c-0.1,0.4-0.4,0.8-0.5,1.2c-0.2,0.4-0.4,0.6-0.9,0.6c0.1,0.2,0.1,0.6,0.2,0.8c1.8-0.7,4.1-0.5,5.7,0.5c0.4-2.9,1.4-5.9,2.2-8.6
		c1.4-4.4,3-8.8,4.9-13c0.8-1.8,1.5-3.5,2.2-5.4C528.8,41,528.5,39.8,527.6,39.1"/>
</g>
<g>
	<path class="st2" d="M517.9,88.1c0,0.3-0.5,0.4-0.3,0.7c-0.6,1.9-0.7,4-2.8,4.8c-0.5,0.1-0.9,0.1-1.3-0.2c-1.2-0.8-1-2-1.3-3.2
		l-0.2-7.5c-0.3,0.2-0.9,1.4-1,1.7c0,2.3,0,3.8-0.3,6.1c-0.5,2.5-0.9,5.6-3.8,6.4c-1.4,0.4-2.4-0.2-3.5-1c-2.8,2.3-5.9,4.8-8.9,6.6
		c-3.8,2-7.3,4.4-11.1,6.2l-0.7,0l-4.1-2.8c-0.4,1.6-1.5,3.1-2.8,4.1l5.7,3.5c0.6,0.2,1.2,0.6,1.9,0.3c2.8-0.9,5.2-2.8,7.8-4.3
		l12.5-7.1l5-2.9l1-0.4c0.6,1.3,1,2.6,1.9,3.7c0.3,0.5,0.6,1,1.1,0.8c0.5,0,0.2,0.5,0.5,0.7c0.1,0,1,0,1.1-0.2
		c-0.2-0.3-0.3-0.6-0.2-0.9c0.2-0.3,0.2-0.3,0.6-0.2c0.9,0.5,0.8,1.6,1.4,2.3c0.8-0.4-0.1-2.1-0.1-3.1c0.7-0.6,1.1-0.9,2-1
		c0.7-0.1,1.5,0.5,2.1,0.1c1.4-3.5-0.2-7.1-1.1-10.4C518.9,90,518.2,89.1,517.9,88.1"/>
	<path class="st2" d="M514.1,57.4c0,2.3,0.2,5.1,0.4,7.4c0.2-0.1,0.9-0.6,1.1-0.7c0.9-0.7,1.3-2,1.7-3c0.6-1.2-0.9-0.7-1.3-1.3
		c-1-1-0.4-2.5-0.3-3.7C515.4,56.5,514.5,57,514.1,57.4"/>
</g>
<g>
	<defs>
		<rect id="SVGID_11_" x="437" y="38.5" width="102" height="102"/>
	</defs>
	<clipPath id="SVGID_2_">
		<use xlink:href="#SVGID_11_"  style="overflow:visible;"/>
	</clipPath>
	<path class="st3" d="M515.9,75.8c0.8-0.7,1.5-1.9,1-3c-0.2-0.4-0.8-0.9-1.2-0.9c-0.6,0-1.3,0.5-1.5,1l1.3,3H515.9z"/>
	<path class="st3" d="M486.6,63.8c4-1.6,7.8-3.8,12.1-4.8c2.1-0.5,4.3,0,6.3,0.4c0.1-0.7-0.1-1.3,0.6-1.7c1.6-0.4,1.7,2,2.6,2.6
		c0.2-1-0.2-2.4,0.5-3.2c0.4-0.5,1.1-0.1,1.6-0.2l2.5-1.9c-2.4-1.4-5.3-2.5-8.1-3c-6.4-1.1-11.6,2.4-17,4.6l-0.7,0.1
		c-4.7-2.4-9-5.6-14.4-6.2c-3.5-0.2-7.2,0.2-10.4,1.4c-4.3,1.4-7.7,5-11.2,8.3l-0.1-0.1c-0.2-3.5,0.6-6.7,1.9-9.6
		c0.7-1.8,1.8-3.5,2.4-5.3c0-0.5-0.3-0.9-0.7-1.1c-0.7-0.3-1.2,0.2-1.7,0.7c-1.7,2.6-3.1,5.3-4,8.1c-0.7,2-1,4.3-1.6,6.4
		c-0.2,0.4-0.6,0.7-1,0.5c-0.8-0.5-0.9-1.4-1-2.2c0.1-5.2,2.4-9.6,4.7-13.9l0.1-0.9c-0.1-0.4-0.4-0.6-0.7-0.8
		c-0.5-0.3-0.9,0.2-1.3,0.5c-2,2.7-3.6,5.5-4.7,8.6c-0.8,2.1-1.2,4.4-1.7,6.7c-0.2,0.4-0.6,0.6-1,0.5c-0.9-0.4-0.9-1.5-1-2.4
		c0.3-5.1,2.7-9.3,4.9-13.6l0.3-1c0-0.4-0.4-0.7-0.7-0.9c-0.8-0.2-1.4,0.4-1.9,1c-3,4.9-5.6,10.1-5.3,16.3c0.3,6,4.8,10.2,6.5,15.6
		c0.5,2.3-0.3,4.7-0.5,7l0.5,0.5c0.4,0.2,0.4,0.8,0.5,1.2c0.1,2.6-0.7,5.8-0.4,8.4l0.9-0.8c0.7-0.6,1.6-1.6,2.6-1.5
		c0.2-2.3-0.3-4.7,0.2-6.9c0.4-1.5,1-2.9,2.6-3.3c0.3-0.1,0.4,0.1,0.5,0.3c0.2,0.4,0.1,0.7-0.1,1.1c-0.7,0.8-1.4,2-1.2,3.2
		c0.1,0.3,0.7,0.2,1,0.3c0.3,0.2,0,0.3,0.2,0.6c-0.1,0.9-0.9,1.5-1.3,2.3c0,0.5,0,1.6,0.2,2.1c0.5-0.2,1.1-0.8,1.6-1
		c0.7-0.4,0.7,0.6,1.4,0.5c0.6-0.7,1.4-2.1,1.7-2.9l-0.4-0.3c-0.3,0.1-0.6,0-0.9,0c-0.5,0-0.8,0-1.1-0.4c-0.4-2.1,0.5-3.4,1.4-5.1
		c0.5-0.7,1-1.7,1.9-1.5c0-3.6,0.9-6.9,2.7-9.9c2.9-4.2,7.1-7.9,11.9-8.7c5.3-1.1,9.5,1.9,13.7,4.3
		C484.1,63.2,485.2,64.3,486.6,63.8"/>
</g>
<g>
	<path class="st2" d="M512,65.1c-0.1-2.1,0-4.4-0.1-6.4c-0.4,0-1.1,0.1-1.4,0.2c0.1,1.4-0.1,2.9-0.2,4.3L512,65.1z"/>
	<path class="st2" d="M465.6,96.5l-0.8-0.6c-1-0.7-2.3-1.9-3.2-2.6c0.5,2.8,0.9,6,0.5,9l3.8,2.1l0.6,0.3l-0.3-1.3
		C465.2,101.1,465.4,99.1,465.6,96.5"/>
	<path class="st2" d="M459.4,91.3l-0.1-0.3c-0.5-0.9-1.2-1.6-1.6-2.6c-0.2-0.4-0.5-0.5-0.7-0.9c-0.2-1.2-1-2.5-1.3-3.4
		c-0.2,2.2-1.2,4.2-2.6,5.8c-0.4,0.2-0.5,0.1-1,0c-0.5-0.1-1-0.7-1.5-0.4c-0.7,0.8-1.3,2.2-2.6,2c-0.6-0.3-0.9-0.8-1.3-1.3
		c-0.9,1.1-2.4,1.3-3.6,2.1c-0.4,0.2-0.4,1.6-0.8,1.3c0.2,1.6,0.5,3.2,1.1,4.6c0.1-0.7,0.3-1,0.8-1.5c0.5-0.1,0.9-0.6,1.4-0.7
		c2.9-0.4,5.4,1.6,7.3,3.7c0-1.5,0.4-3.4,0.6-4.8c0.2-0.9,0.1-1.8,1.2-2.2c0.6-0.2,0.7,0,1.1,0.2c0.5,0.4,0.7,1,0.8,1.5l0.1,6.7
		l0.4,1.8c0.2,0.2,0.7,0.7,1,0.6c0.2-0.1,0.6-0.4,0.7-0.6l0.3-2.4c0.1-2.5-0.4-4.9-0.9-7.2C458.3,92.6,458.6,91.8,459.4,91.3"/>
	<path class="st2" d="M454.5,104.2c-0.5,1.7-2.8,4.6-2.1,5.3c0.9,0.6,2.3,0.6,3.3,0.2c0.9-0.3,1.5-1.3,1.8-2
		C457.1,107,455.1,105.2,454.5,104.2"/>
	<path class="st2" d="M453.6,81.7l1.8,0.7c-0.2-0.9-0.4-2.5-0.7-3.3C454.3,79.7,453.6,80.9,453.6,81.7"/>
</g>
<g>
	<defs>
		<rect id="SVGID_13_" x="437" y="38.5" width="102" height="102"/>
	</defs>
	<clipPath id="SVGID_3_">
		<use xlink:href="#SVGID_13_"  style="overflow:visible;"/>
	</clipPath>
	<path class="st4" d="M448.1,99.4c-0.3,0-1.2-0.2-1.5,0.2c0.4,2.2,0.7,4.7,0.5,7.1c0,0.2,0.4,0.4,0.5,0.4c1.5-0.8,2.7-2.7,2.6-4.5
		C450.1,101.4,449.3,100,448.1,99.4"/>
	<path class="st5" d="M538.6,83.9c-1.3-2.1-4.1-1.5-6.2-1.2c-4.2,1.1-7.6-1.2-11.2-2.3c-0.9-0.3-1.9-0.3-2.7-0.7
		c1.8-2.7,3.9-5.8,2.4-9.2c-0.7-1.3-2.1-2.1-3.4-2.4c-2.5-0.5-4.9,0.3-6.6,2.2c-0.6,0.8-1.2,2-0.6,3.1c1.8,5.4,1.3,11.5,1.6,17.1
		c0.3,1.2,0.4,2.8,1.8,3.3c0.8,0.4,1.5-0.2,2.1-0.7c2.2-2.5,2.1-5.8,1.9-9.1l0.1-0.1c2.2,0.5,4.1,1.9,6.2,2.8c3.9,1.6,9,3.2,13.1,1
		c0.7-0.3,1.3-0.9,1.6-1.6C539.2,85.4,538.9,84.6,538.6,83.9 M515.7,75.7l-0.1-0.1l-1.2-2.7c0.2-0.6,0.8-0.9,1.3-0.9
		c0.4,0,0.7,0.3,0.9,0.7C517.2,73.8,516.6,75.1,515.7,75.7"/>
</g>
<g>
	<path d="M523.3,107c-1.3-0.2-2.7-0.5-3.6-1.6c0.6-0.4,0.6-1,0.8-1.6c-0.1-0.7,0.1-1.7-0.5-2.3c-0.5-0.5-1.2-0.5-1.9-0.5
		c-0.8,0.2-1.7,0.6-2.2,1.3c0.2,0.9,0.2,1.8,0.4,2.7c0,0-0.1,0.1-0.1,0.1c-0.4-0.7-0.5-1.5-1.1-2.1c-0.2-0.1-0.4-0.2-0.7-0.1
		c-1.2,0.8,0.1,1.8,0.3,2.7c0.2,1.1,0.5,2.5-0.4,3.3c-0.2,0.1-0.4,0.1-0.6-0.1c-0.3-0.9-0.2-1.9-0.2-2.9c-0.1-0.7,0.1-1.6-0.3-2.2
		c-0.5-0.3-0.9,0.1-1.3,0.3c-0.2,0.8-0.1,1.7-0.3,2.6c0.3,1.4-0.2,3.2,1,4.1c0.5,0.1,1.1,0.1,1.5-0.1c1-0.3,1.9-1.4,2.1-2.4
		c0-0.1,0.1-0.1,0.2,0c-0.1,0.5-0.1,1.1,0.4,1.3c0.3,0.1,0.7,0.2,1,0.1c0.5-0.6,0.6-1.4,0.5-2.2c0-0.1,0.1-0.3,0.3-0.3
		c1.4,1.4,3.3,2.5,5.3,1.8c0.5-0.2,0.7-0.8,0.6-1.4C524.3,107.1,523.7,106.9,523.3,107 M518.5,104.6c-0.1,0-0.2-0.1-0.2-0.2
		c0.1-0.6-0.3-1-0.2-1.6c0.2-0.1,0.5-0.2,0.7-0.1C519.2,103.3,518.9,104.1,518.5,104.6"/>
	<path d="M467.1,85c0.3-0.4,0.9-0.2,1-0.8c0.6-0.3,0.8-1.1,1.5-1.2c0.5,0.3,0.8,0.8,1.3,0.8c0.5,0,0.9-0.6,1.2-0.9
		c1.3-1.8,2.1-4,1.8-6.4c-0.2-0.7-1.3-0.5-1.5-1.3c0-1.2,0.6-2.2,1.5-3.1l1.4-0.1l0.2,0.1c0,1.7-0.1,3.4-0.2,5
		c0.1,1.2-0.3,2.5,0.1,3.7c0.2,0.4,0.7,0.9,1.1,0.9c0.8,0.1,1.2-0.7,1.5-1.3c0.6-3.1,0.4-6.4,0.6-9.6l0.2-0.3
		c0.6-0.3,1.2-0.7,1.8-1.3c0.1-0.1,0.3,0,0.3,0.1c-0.3,2.8-0.9,5.6-1.1,8.5c-0.1,0.6-0.1,1.3,0.4,1.8c0.4,0.2,0.8,0.4,1.3,0.3
		c1.1-0.4,1.1-1.6,1.3-2.6c0.2-0.5-0.1-1.2,0.3-1.7c0.2-0.1,0.4-0.2,0.7-0.2c0.4,0.6,0.6,1.2,1,1.8c0.3,0.4,0.7,1.1,1.4,1
		c0.7,0,1-0.8,1.4-1.3c0.7,0.2,1.8,0.2,2.5-0.2c1.3-0.5,1.7-1.9,2.1-3.1l0.1,0c0.2,0.6,0.1,1.3,0.7,1.8c0.3,0.2,0.7,0.3,1,0.2
		c1.4-0.7,1.4-2.4,1.6-3.8c0-0.2,0.2-0.4,0.4-0.4c1.2,0.9,2.1,2.4,3.6,2.2c0.7-0.4,1.1-1.1,1.3-1.7c0.6-1-0.1-3,1.7-2.9
		c0.7,0.7,0.9,1.8,1.8,2.3c0.8,0.3,1.1-0.7,1.9-0.7c1.3-0.8,1-2.4,1.3-3.7l0.2-0.2c0.5,0.8,0.6,1.7,1.2,2.4c0.2,0.3,0.6,0.5,0.9,0.3
		c0.5-0.3,0.7-0.8,0.8-1.3c0-3,0.2-6.1,0.3-9c0.3-0.2,0.7-0.2,1-0.2c0.1,2.6-0.1,5.1,0.2,7.7c0,0.5,0.2,1.1,0.7,1.4
		c0.3,0.2,0.8,0.1,1.1,0c0.7-0.4,0.7-1.1,1-1.7c0.3,0.2,0.7,0.7,1.2,0.5c2.3-0.9,3.2-3.5,4.1-5.5c0.3-1.1,1-2.8-0.1-3.7
		c-0.4-0.4-1,0-1.4-0.3c0.1-0.6,0.1-1.3,0.2-1.9c0.4-0.3,0.9-0.8,1.5-0.8c0.8,0,0.5-1.1,0.4-1.5c-0.3-0.5-0.8-0.7-1.3-0.8
		c-1.1,0.2-2.1,0.8-2.8,1.8l-0.1,0c-0.3-0.3-0.7-0.5-1.2-0.6c-1.9,0.6-3.5,1.8-5,3.3c-0.5,0-0.9-0.2-1.3,0c-1,0.6-0.6,2-0.7,3
		L508,60c-0.6-0.7-0.6-1.7-1.5-2.4c-0.3-0.1-0.5-0.3-0.9-0.2c-0.3,0-0.5,0.4-0.6,0.7l-0.4,7.2l-0.2,0.3c0,0-0.1,0-0.1,0
		c-1-1.9-1.8-3.9-3-5.8c-0.2-0.4-0.6-0.6-1-0.6c-0.4,0.2-0.4,0.7-0.6,1.1l-1.3,9.2l-0.1,0.5c-0.2,0.2-0.3-0.1-0.4-0.2
		c-0.6-0.5-1-1-1.3-1.7c0.6-1,1.5-1.9,1.7-3.1c0.2-1.1-0.2-2.3-1.1-3c-0.8-0.7-2-0.6-2.9-0.5c-0.7,0.3-1.9,0.3-2,1.4
		c0,2.4,0.2,4.8-0.1,7.1l-0.1,0.2c-0.1-0.9-0.2-1.9-0.2-2.8c-0.3-1.3-0.2-2.9-1.1-3.9c-0.3-0.2-0.7-0.1-1.1,0
		c-0.4,0.1-0.7,0.6-0.8,0.9c-0.2,1.5,0.1,3.1,0.3,4.6c0.1,1.6,0.2,3.3-0.5,4.6c-0.3,0.1-0.5,0.1-0.7-0.1c-0.3-0.9-0.3-2.1-0.3-3.1
		c-0.1-1.9,1.2-4.3-0.4-5.8c-0.4-0.2-0.8-0.1-1.2,0c-0.4,0.2-0.5,0.6-0.7,0.9c-0.2,1.4-0.3,2.9-0.2,4.4c0.1,0.1-0.1,0.2-0.2,0.2
		c-1-1.2-1.1-2.8-2.3-4l-0.4-0.1c-0.7-0.1-1,0.8-1.4,1.2c-1.2-1-2.7,0-3.9,0.3c-1.4,0.7-3.2,1-4,2.6c-0.3-0.1-0.9-0.1-1.1,0
		c-1.7,0.9-2.4,2.7-2.9,4.4c-0.2,0.5-0.2,1.1-0.4,1.5c-0.7-0.4-1.4,0.1-2,0.5c-0.3-0.3-0.3-0.8-0.2-1.1c0.8-1.5,3.3-2.1,2.7-4.1
		c-0.1-0.3-0.4-0.5-0.7-0.7c-0.4-0.1-0.9,0-1.2,0.3c-1.2,1.2-2.8,2.5-3.5,4c0.2,2.3,0.5,4.5,0.5,6.9l-0.2,0.2
		c-0.6-0.6-1.3-1.1-1.8-1.8c0.4-1.5,1.3-3.1,0.7-4.9c0-0.3-0.4-0.5-0.4-0.8c-0.6-0.8-1.6-1-2.5-0.8c-1.1,0.5-2.7,0.7-3.1,2.2
		c0.3,3.3,0.3,6.7-0.1,10c0.1,0.7-0.1,1.5,0.4,2c0.4,0.4,1.1,0.6,1.6,0.3c0.4-0.3,0.7-0.8,0.8-1.3l0.1-4.6c0-0.1,0-0.4,0.2-0.4
		l2.5,2.3c0.7,0.5,1.3,1.5,2.3,1.3C465.5,85.9,466.5,85.5,467.1,85 M515.6,56.4c-0.1,1.1-0.7,2.6,0.3,3.5c0.4,0.3,0.8,0.5,1.3,0.6
		c0.1,0.9-0.4,1.7-0.8,2.4l-0.8,1c-0.3,0.2-0.7,0.3-0.9,0.5c-0.3-2.3-0.3-4.7-0.4-7.1C514.7,57,515.1,56.6,515.6,56.4 M501,63.9
		c0.5,0.1,0.8,0.8,1.1,1.2c0,0.4-0.2,0.9-0.6,0.9c-0.4,0.1-0.5-0.4-0.6-0.7C501,64.8,500.8,64.3,501,63.9 M494.8,64.3
		c0.2-0.2,0.4-0.2,0.6-0.1c0.6,0.6,0.5,1.4,0.3,2.1c-0.2,0.2-0.2,0.5-0.5,0.3C495.1,65.9,494.6,65.2,494.8,64.3 M482.8,70.2
		c0.6,0,0.7,0.7,0.9,1.2c0,0.4,0,0.8-0.4,0.9c-0.2,0-0.4,0-0.5-0.2C482.7,71.4,482.6,70.7,482.8,70.2 M467.2,79l1.4-1.7
		c0.5,0.4,1.1,0.6,1.8,0.5c0.1,0.5,0.1,1.2-0.2,1.7l-0.2,0.1c-0.3-0.1-0.7-0.4-1.1-0.2c-0.6,0.3-1,0.9-1.5,1.4
		c-0.4,0.1-0.2-0.4-0.3-0.5C466.9,79.8,466.8,79.3,467.2,79 M460.1,80c-0.3,0-0.2-0.3-0.3-0.5l-0.2-2c0.1-0.2,0.3-0.6,0.6-0.5
		C460.8,77.8,460.7,79.2,460.1,80"/>
	<path d="M509.7,110.4c-0.3-0.2-0.1-0.4-0.2-0.7c0.2-0.5,0.7-0.5,1.1-0.8c0.8-0.3,0.6-1.2,0.9-1.8c-0.6-0.5-1.2,0.1-1.7,0.3
		l-0.1-0.1c0.3-0.8,1.1-1.1,1.7-1.7c0.1-0.4,0.1-0.7,0-1.1c0-0.3-0.4-0.4-0.6-0.4c-1.1,0.5-2.1,1.2-2.9,2.2
		c-0.4-0.2-0.8-0.5-1.3-0.3c-1,0.2-1.4,1.4-1.9,2.1c-0.7-0.6-1.8-0.8-2.7-0.4c-1.6,1.1-2,2.9-2.1,4.7c0.1,1.9,0.4,4,2.3,4.9
		c1.1,0.3,2.2,0.1,3-0.7c0.4-0.5,0.6-1,0.6-1.7c0-0.4-0.2-0.8-0.5-1.1c-0.3,0-0.5-0.1-0.7,0.1c-0.7,0.2,0,1.1-0.4,1.5
		c-0.3,0.3-0.7,0.1-1,0.1c-0.5-0.1-0.7-0.7-0.9-1.1c-0.3-1.6-0.3-3.5,0.5-4.8c0.3-0.2,0.6-0.4,0.9-0.2c0,0.5,0.5,0.9,0.9,1.2
		c0.1,0.8,0.2,1.6,0.5,2.3c0.3,0.4,0.7,0.9,1.3,0.7c1,0.2,1.6-1,2-1.7c0.2-0.1,0.4,0.3,0.5,0.4c1.2,0.6,2-0.8,2.9-1.5
		c0.2-0.3,0.1-0.6-0.1-0.8C511.2,109,510.4,110.4,509.7,110.4 M506.7,111.3c-0.2,0.1-0.4,0-0.5-0.2c-0.1-1.3-0.2-2.9,0.8-3.8
		c0.8,0.1,0.5,1.1,0.7,1.7C507.6,109.9,507.4,110.7,506.7,111.3"/>
	<path d="M500.9,95.4c0.2-0.2,0.1-0.6,0.4-0.8c1.4,1.6,3,2.9,5.2,2.7c1.4-0.2,2.7-1.3,3.3-2.7c0.4-1,0.8-2.1,1-3.2
		c0.8-5.2,0.2-10.6-0.8-15.6c-0.3-1.3-0.6-2.6-1.7-3.6c-0.6-0.6-1.5-0.4-2.2-0.2c-0.8,0.4-1.1,1.3-1.1,2.1c0.2,3.1,1.5,5.8,1.9,8.8
		c0.4,2.7,0.6,5.8,0.1,8.4c-0.2,0.4-0.6,0.8-1,0.8c-1.4-0.2-1.5-1.8-2-2.9c-0.6-2.5-1-5.1-1.2-7.7c-0.2-2.2,1-4.8-0.7-6.6
		c-0.5-0.4-1-0.8-1.8-0.7c-0.8,0.1-1.5,0.8-1.9,1.4l0.2-0.1c0.5,4.4,0.7,9,2,13.1c0,0.2,0.2,0.5-0.1,0.5c-2.5-0.7-3.8,2.2-5.1,3.8
		c-0.1,0-0.2,0-0.2-0.1c-0.3-1.3-0.6-2.6-0.6-4.1c1.2-1.4,2.9-2.6,3.8-4.2c0.4-0.7,0.1-1.5-0.1-2.2c-0.4-0.4-0.7-0.9-1.3-0.8
		c-1.3,0.3-2.3,1.3-3.3,2.1c-0.1,0.1-0.3,0-0.4-0.1c-0.1-0.8-0.5-1.6-0.3-2.5c1.8-1.6,4.1-3.1,5.2-5.3l-0.7-0.9
		c-0.7-0.5-1.7-0.3-2.4,0c-1.7,1.1-3.2,2.6-4.7,4.1c-0.9,1-2.2,1.9-2.5,3.2c-0.2,0.3,0.2,0.9-0.3,0.9c-1.6-1.4-4.1-2.1-6.1-1.2
		c-2.3,0.9-3.5,3.5-4,5.7c-0.2,0.3-0.1,0.8-0.5,0.9c-1.3-1.4-3-2.1-4.9-2c-2.3,0-4.1,2.1-5,3.9c-2.3,4.3-2.7,11-0.3,15.4
		c1.1,2.5,3.5,5,6.4,5c2.5,0,4.5-2.1,5.5-4.3c0.5-1.2,0.9-3.2-0.3-4.2c-0.4-0.5-1.1-0.6-1.8-0.5c-1.9,0.5-1.6,2.6-2.9,3.7
		c-0.6,0.1-1.3,0.1-1.7-0.5c-1.1-1.6-1.7-3.5-1.8-5.5c0-2.2-0.1-4.6,0.8-6.5c0.3-0.5,0.7-1.2,1.5-1c1.1,0.6,2.1,1.9,3.6,1.4
		c0.4,0,0.7-0.5,1.1-0.4c0.7,4.9,1.9,10.9,7.4,12.5c2.2,0.5,4.2-0.7,5.3-2.6c0.5-0.7,0.6-1.7,1.2-2.3c0.5,0.7,0.6,1.7,1.5,2.1
		c0.6,0.2,1.2,0,1.7-0.3C496.7,100.7,499,98.1,500.9,95.4 M486.6,99.9l-0.7,0.8c-0.3,0.3-1,0.3-1.4,0.1c-2-1.3-2.4-3.7-2.9-6
		c-0.3-2.7-0.2-5.6,1.1-7.9c0.3-0.3,0.7-0.5,1-0.6c1.8,0.2,2.5,2.3,3.1,3.7C487.9,93.2,488.1,97,486.6,99.9"/>
	<path d="M497.2,110.4c-0.2,0-0.4,0.2-0.4,0.4c0.3,1.4,0.8,3.1,0.4,4.6c-0.2,0.3-0.3,0.9-0.9,0.9c-0.2-0.1-0.4-0.3-0.5-0.5
		c-0.3-1.1,0-2.3,0.1-3.5c0-0.5,0.1-1.1-0.4-1.4c-0.3-0.1-0.6,0.1-0.7,0.3c-0.4,1.1-0.3,2.4-0.4,3.7c0.2,1.1,0.3,2.5,1.5,2.8
		c0.5,0.3,1.2,0,1.7-0.2c0.6-0.2,0.8-0.9,1.3-1.3c0.4-1.7,0.9-4-0.4-5.5C498.1,110.5,497.7,110.4,497.2,110.4"/>
	<path d="M492.1,112.4c-0.9-0.2-1.7,0-2.3,0.6c-0.3,2-0.1,4.1-0.2,6.2l0.1,0.4c0.3,0.3,0.6,0.6,1.1,0.6c1.2,0.1,2-0.7,2.8-1.5
		l0.3-0.7c0.3-0.9,0.7-2.2,0.2-3.2C493.9,113.6,493,112.8,492.1,112.4 M492.4,116.5c-0.1,0.8-0.5,1.7-1.2,2.1
		c-0.3-0.3-0.1-0.8-0.1-1.2l0-3.2c0.3-0.1,0.6-0.2,0.9-0.1C492.7,114.6,492.4,115.7,492.4,116.5"/>
	<path d="M486,114.7c-0.9,0.9-1.6,1.9-1.6,3.1c-0.1,1,1,1.4,1.6,1.9c0.1,0.5-0.2,1-0.5,1.4c-0.1,0.1-0.4,0.1-0.4-0.1
		c-0.2-0.7-1-0.6-1.4-0.9l-0.1-3.2c-0.3-0.4-0.2-1.4-1.1-1.1c-0.3,0-0.6,0.2-0.7,0.5c-0.2,1.2,0,2.5,0,3.7c-0.1,0.6,0.2,1.3-0.2,1.7
		l-0.1-0.1l-1-3.4c-0.4-0.6-0.9-1.5-1.8-1.3c-0.4,0.2-0.6,0.6-0.8,1c-0.4,1.9-0.2,4-0.6,5.9c-0.3,0.4-0.5,0.9-1,1.1
		c-0.3-0.6-0.1-1.4-0.2-2.1c-0.2-1.3,0.4-2.7-0.2-3.7c-0.2-0.3-0.6-0.4-0.9-0.3c-0.3,0.1-0.5,0.3-0.6,0.5c-0.2,1.9-0.2,3.7-0.2,5.7
		c-0.6,0.3-1.1,0.7-1.7,1c-0.4-0.2-0.1-0.5-0.1-0.8c0.5-0.4,1.2-0.7,1.4-1.4c0.1-0.4,0-0.9-0.4-1c-0.5-0.3-0.8,0.5-1.3,0.2
		c0.5-0.9,2.2-1,1.7-2.4c-0.1-0.5-0.7-0.7-1.1-0.7l-2,1.4c-0.3,1.6,0,3.3,0,5c-0.2,0.4-0.6,0.1-0.9,0.1c-0.7-0.3,0.2-0.7,0.2-1.1
		c0.3-0.9,0.1-2.1-0.5-2.8c-0.6-0.5-1.3-0.3-1.9-0.1c-0.5,0.3-1.2,0.5-1.1,1.3c0.2,2-0.4,3.9-0.7,5.9c0.3,0.4,0.6,1,1.2,0.9
		c0.7-0.6,0.6-1.5,0.9-2.3c0.2-0.3-0.1-0.9,0.3-1.1l0.8,0.7c1.1,0.7,2.5,0.5,3.7,0.2l1.7-1.5c0.5-0.4,0.8,0.3,1.3,0.3
		c0.8-0.2,1.6-0.6,2-1.4l0.7,0c0.9-0.5,0.3-1.6,0.7-2.3c0.4,0,0.7-0.4,1-0.2c0.2,0.5,0.3,1.3,1,1.3c0.3,0,0.7-0.2,0.9-0.5l0.8,0.2
		c0.3-0.1,0.6-0.2,0.7-0.4c0.2-0.4,0-0.9,0.3-1.2c0.4,0.3,0.7,0.7,1.2,0.6c0.9,0,1.8-0.5,2.3-1.4c0.3-0.8,0.6-2,0-2.8
		c-0.1-0.7-1.1-0.5-1.1-1.2c0.1-0.4,0.2-0.9,0.6-1c0.3,0.3,0.4,0.7,0.8,0.7c0.5,0,0.4-0.6,0.6-0.8c0-0.7-0.4-1.1-0.8-1.6
		C487,114.7,486.5,114.5,486,114.7 M468.4,125.4c-0.4-0.2,0-0.7-0.2-1c0.1-0.1,0.2-0.2,0.3-0.1C468.7,124.5,468.7,125.1,468.4,125.4
		 M479.4,121.4c-0.2,0.1-0.2-0.1-0.2-0.2c0.1-0.4,0-0.8,0.2-1.1C479.6,120.4,479.9,121.1,479.4,121.4"/>
	<path d="M463.8,128.4c-0.5-0.4-1,0-1.5,0c-0.4-0.5,0.3-0.8,0.2-1.3c0.3-0.9,1-0.1,1.6-0.2c0.1-0.1,0.1-0.2,0.2-0.2
		c0-0.6-0.3-1.2-0.8-1.6c-0.3-0.3-0.8-0.2-1.2-0.1c-1.1,0.8-1.9,2.3-1.6,3.7c0.3,0.5,0.8,0.9,1.2,1c0.2,0.2,0.6,0,0.8,0.2
		c0,0.4-0.3,0.8-0.6,1c-0.9-1.4-1.9,0.5-2.8,0.7c-0.3,0-0.3,0.5-0.6,0.2c-0.3-1.3,1.5-0.9,1.7-2c0-0.4-0.2-0.7-0.6-1
		c-0.4-0.1-0.9,0.4-1.2,0c0.4-0.8,2-1,1.7-2.2c-0.1-0.4-0.5-0.5-0.8-0.6c-1,0.3-1.8,0.9-2.7,1.5c0.1,1.4,0.2,2.9,0.2,4.4l-1.3,1.1
		c-0.1,0-0.3,0.2-0.3,0c0.1-1.7-0.1-3.4-0.2-5c-0.1-0.3-0.5-0.3-0.8-0.4c-0.5,0-0.8,0.2-0.9,0.7l0.4,5.8c0.1,0.3,0.4,0.6,0.7,0.7
		c0.5,0.2,1-0.1,1.5-0.3c0.4-0.6,1.2-0.5,1.2-1.3c0.2-0.1,0.4,0.3,0.6,0.4c1.2,0.5,2-0.6,2.9-1.2l0.2-0.4c0.2,0,0.5,0.1,0.6,0.2
		c0.8,0.2,1.7,0,2.3-0.6c0.7-0.6,1-1.4,1-2.3C464.5,129,464.2,128.7,463.8,128.4"/>
	<path d="M454.5,104.7c0.7,1.2,1.8,2.6,3.2,2.9c1.4,0.1,2.9-0.4,3.7-1.6l0.7-1.8c0.8-3.6,0.6-7.8-0.5-11.2c-0.3-0.8-0.9-2-1.9-2.1
		c-0.4,0-0.8,0.2-1.2,0.5c-0.9,1-0.5,2.4-0.2,3.6c0.7,2.4,0.9,5.4,0.5,8c-0.1,0.2-0.3,0.6-0.6,0.6c-0.3-0.1-0.4-0.4-0.6-0.6
		c-0.9-2.3-0.2-5.1-0.5-7.6c0-1.1-0.4-2.2-1.4-2.7c-0.6-0.2-1.3,0-1.7,0.5c-1.1,1.8-0.9,4.1-1.1,6.3c-0.7-0.7-1.4-1.6-2.2-2.2
		c-1.7-1.1-4.1-2.1-6-0.8c-0.1,0-0.3,0-0.4,0.1c-1.3,2.2-0.1,4.9,0.1,7.2l-0.1,5.7l0.4,1.2c0.3,0.5,0.8,0.9,1.4,1
		c2.4,0.5,4.6-0.5,6.3-2.3c1.1-1.4,1.7-2.9,2-4.6C454.3,104.8,454.4,104.7,454.5,104.7 M449.9,104.2c-0.3,1.1-1.3,2.2-2.3,2.7
		c-0.2,0-0.3-0.1-0.4-0.2c0.1-2.4,0-4.8-0.4-7c0.8-0.1,1.6,0.2,2.1,0.9C449.9,101.4,450.3,102.9,449.9,104.2"/>
	<path d="M446.9,90.5c0.3,0.5,0.6,1.1,1.1,1.3c0.5,0.1,0.9-0.1,1.3-0.4c0.7-0.5,0.9-1.5,1.7-1.8c0.7,0.4,1.6,1,2.3,0.5
		c1.1-1.4,2.1-2.9,2.5-4.6c0.2-1,0.4-2.3-0.4-3.1c-0.5-0.6-1.9-0.4-1.5-1.5c0.3-0.8,0.9-1.8,1.8-1.9c0.1-0.2,0-0.4,0-0.6
		c-0.4-0.6-0.7-1.6-1.7-1.4c-0.5,0-0.9,0.5-1.3,0.9c-0.8,1.4-1.7,2.9-1.9,4.5c0,0.6-0.1,1.3,0.3,1.8c0.5,0.6,1.3,0.4,1.9,0.3l0,0.2
		c-0.3,0.8-0.4,1.8-1,2.3c-0.4,0-0.7-0.3-0.9-0.6c-0.8-0.4-1.4,0.5-2,0.9c-0.3-0.4,0-1-0.1-1.5c0.3-1,1.7-1.8,1.3-2.9
		c-0.1-0.9-0.9-0.1-1.2-0.6c-0.1-1.1,0.4-2.1,1.3-2.8c0.1-0.6,0.3-1.4-0.2-1.8c-1.2-0.4-2,0.7-2.7,1.5c-1.8,2.3-1,5.8-1.1,8.7
		l-0.1,0.2c-1.1-0.1-1.6,0.9-2.4,1.4c-0.4-2.2,0.1-4.4,0.2-6.5c0.1-0.9,0.2-1.9-0.6-2.5c-0.4-0.2-0.8-0.2-1.2,0
		c-0.5,0.3-0.7,0.9-0.8,1.4c-0.3,2.5-0.3,5.2-0.3,7.7c0.1,1.6,0,3.6,1.7,4.3c0.6,0.1,1.1-0.1,1.5-0.5
		C445.4,92.5,446.1,91.4,446.9,90.5"/>
</g>
<g>
	<defs>
		<rect id="SVGID_15_" x="437" y="38.5" width="102" height="102"/>
	</defs>
	<clipPath id="SVGID_4_">
		<use xlink:href="#SVGID_15_"  style="overflow:visible;"/>
	</clipPath>
	<path class="st6" d="M462,139.9c0,0,32.5-21.5,65.1-26.8"/>
</g>
<g>
	<path class="st2" d="M463,139.8c0,0.4-0.4,0.8-0.8,0.8c-0.4,0-0.8-0.3-0.8-0.8c0-0.4,0.4-0.8,0.8-0.8
		C462.6,139,463,139.4,463,139.8"/>
	<path class="st2" d="M527.6,113.2c0,0.4-0.4,0.8-0.8,0.8c-0.4,0-0.8-0.3-0.8-0.8c0-0.4,0.4-0.8,0.8-0.8
		C527.2,112.4,527.6,112.8,527.6,113.2"/>
</g>
</svg>
